# xmcd
#
# Track frame offsets:
#	150
#	12804
#	29403
#	49906
#	70947
#	84290
#	100967
#	115402
#	125077
#	139653
#	159986
#	167217
#	185418
#
# Disc length: 2588 seconds
#
# Revision: 0
# Processed by: cddbd v1.5.2PL0 Copyright (c) Steve Scherf et al.
# Submitted via: audiograbber 1.81.03
#
DISCID=ad0a1a0d
DTITLE=Chumbawamba - A`Singsong And A Scrap
DYEAR=2005
DGENRE=Indie
TTITLE0=Laughter In A Time Of War
TTITLE1=William Francis
TTITLE2=By And By
TTITLE3=You Can
TTITLE4=Walking Into Battle With The Lord
TTITLE5=When Alexander Met Emma
TTITLE6=Fade Away
TTITLE7=Bank Robber
TTITLE8=Learning To Love
TTITLE9=Land Of Do What You're Told
TTITLE10=Bella Ciao
TTITLE11=Smith And Taylor
TTITLE12=A`Singsong And A Crap
EXTD=YEAR: 2005
EXTT0=
EXTT1=
EXTT2=
EXTT3=
EXTT4=
EXTT5=
EXTT6=
EXTT7=
EXTT8=
EXTT9=
EXTT10=
EXTT11=
EXTT12=
PLAYORDER=
